<?xml version="1.0" standalone="no"?>
<!DOCTYPE svg PUBLIC "-//W3C//DTD SVG 20010904//EN"
 "http://www.w3.org/TR/2001/REC-SVG-20010904/DTD/svg10.dtd">
<svg version="1.0" xmlns="http://www.w3.org/2000/svg"
 width="225.000000pt" height="225.000000pt" viewBox="0 0 225.000000 225.000000"
 preserveAspectRatio="xMidYMid meet">
<metadata>
Created by potrace 1.14, written by Peter Selinger 2001-2017
</metadata>
<g transform="translate(0.000000,225.000000) scale(0.100000,-0.100000)"
fill="#000000" stroke="none">
<path d="M347 2159 c-103 -24 -206 -109 -255 -208 l-27 -56 0 -770 0 -770 27
-56 c38 -76 109 -146 188 -183 l65 -31 780 0 780 0 65 31 c79 37 150 107 188
183 l27 56 0 770 0 770 -27 56 c-38 76 -109 146 -188 183 l-65 31 -760 2
c-422 1 -777 -3 -798 -8z"/>
</g>
</svg>
